<svg width="40" height="40" viewBox="0 0 40 40" fill="none" xmlns="http://www.w3.org/2000/svg">
<path d="M13.3333 5C14.1667 5 17.5 12.5 17.5 13.3333C17.5 15 15 16.6667 14.1667 18.3333C13.3333 20 15 21.6667 16.6667 23.3333C17.3167 23.9833 20 26.6667 21.6667 25.8333C23.3333 25 25 22.5 26.6667 22.5C27.5 22.5 35 25.8333 35 26.6667C35 30 32.5 32.5 30 33.3333C27.5 34.1667 25.8333 34.1667 22.5 33.3333C19.1667 32.5 16.6667 31.6667 12.5 27.5C8.33332 23.3333 7.49999 20.8333 6.66666 17.5C5.83332 14.1667 5.83332 12.5 6.66666 10C7.49999 7.5 9.99999 5 13.3333 5Z" stroke="#004178" stroke-width="4" stroke-linecap="round" stroke-linejoin="round"/>
</svg>
