<svg width="50" height="50" viewBox="0 0 50 50" fill="none" xmlns="http://www.w3.org/2000/svg">
<path d="M35.125 1C33.7326 1 32.3973 1.55312 31.4127 2.53769C30.4281 3.52226 29.875 4.85761 29.875 6.25V22C29.875 23.3924 30.4281 24.7277 31.4127 25.7123C32.3973 26.6969 33.7326 27.25 35.125 27.25C35.8212 27.25 36.4889 27.5266 36.9812 28.0188C37.4734 28.5111 37.75 29.1788 37.75 29.875V32.5C37.75 33.8924 37.1969 35.2277 36.2123 36.2123C35.2277 37.1969 33.8924 37.75 32.5 37.75C31.8038 37.75 31.1361 38.0266 30.6438 38.5188C30.1516 39.0111 29.875 39.6788 29.875 40.375V45.625C29.875 46.3212 30.1516 46.9889 30.6438 47.4812C31.1361 47.9734 31.8038 48.25 32.5 48.25C36.6772 48.25 40.6832 46.5906 43.6369 43.6369C46.5906 40.6832 48.25 36.6772 48.25 32.5V6.25C48.25 4.85761 47.6969 3.52226 46.7123 2.53769C45.7277 1.55312 44.3924 1 43 1H35.125ZM6.25 1C4.85761 1 3.52226 1.55312 2.53769 2.53769C1.55312 3.52226 1 4.85761 1 6.25V22C1 23.3924 1.55312 24.7277 2.53769 25.7123C3.52226 26.6969 4.85761 27.25 6.25 27.25C6.94619 27.25 7.61387 27.5266 8.10615 28.0188C8.59844 28.5111 8.875 29.1788 8.875 29.875V32.5C8.875 33.8924 8.32188 35.2277 7.33731 36.2123C6.35274 37.1969 5.01739 37.75 3.625 37.75C2.92881 37.75 2.26113 38.0266 1.76884 38.5188C1.27656 39.0111 1 39.6788 1 40.375V45.625C1 46.3212 1.27656 46.9889 1.76884 47.4812C2.26113 47.9734 2.92881 48.25 3.625 48.25C7.80216 48.25 11.8082 46.5906 14.7619 43.6369C17.7156 40.6832 19.375 36.6772 19.375 32.5V6.25C19.375 4.85761 18.8219 3.52226 17.8373 2.53769C16.8527 1.55312 15.5174 1 14.125 1H6.25Z" stroke="#004178" stroke-width="2" stroke-linecap="round" stroke-linejoin="round"/>
</svg>
